<svg viewBox="-250, -250, 500, 500" name="windrose" width="500" font-family="sans-serif"><g name="rings"><g name="ring-bin-0-1" fill="#f7fbff"><path name="0-1_N" d="M0.5,-63.782A63.784,63.784,0,0,1,23.946,-59.118L7.189,-18.663A20,20,0,0,0,0.5,-19.994Z" transform="rotate(-11.25)"><title>N: 0-1</title></path><path name="0-1_NNE" d="M9.975,-22.776A24.865,24.865,0,0,1,17.225,-17.932L13.784,-14.491A20,20,0,0,0,8.113,-18.28Z" transform="rotate(-11.25)"><title>NNE: 0-1</title></path><path name="0-1_NE" d="M31.694,-30.987A44.324,44.324,0,0,1,40.756,-17.423L18.28,-8.113A20,20,0,0,0,14.491,-13.784Z" transform="rotate(-11.25)"><title>NE: 0-1</title></path><path name="0-1_ENE" d="M41.139,-16.499A44.324,44.324,0,0,1,44.322,-0.5L19.994,-0.5A20,20,0,0,0,18.663,-7.189Z" transform="rotate(-11.25)"><title>ENE: 0-1</title></path><path name="0-1_E" d="M29.726,0.5A29.73,29.73,0,0,1,27.654,10.914L18.663,7.189A20,20,0,0,0,19.994,0.5Z" transform="rotate(-11.25)"><title>E: 0-1</title></path><path name="0-1_ESE" d="M31.767,13.699A34.595,34.595,0,0,1,24.813,24.106L14.491,13.784A20,20,0,0,0,18.28,8.113Z" transform="rotate(-11.25)"><title>ESE: 0-1</title></path><path name="0-1_SE" d="M13.784,14.491A20,20,0,0,1,8.113,18.28A20,20,0,0,0,13.784,14.491Z" transform="rotate(-11.25)"><title>SE: 0-1</title></path><path name="0-1_SSE" d="M7.189,18.663A20,20,0,0,1,0.5,19.994A20,20,0,0,0,7.189,18.663Z" transform="rotate(-11.25)"><title>SSE: 0-1</title></path><path name="0-1_S" d="M-0.5,19.994A20,20,0,0,1,-7.189,18.663A20,20,0,0,0,-0.5,19.994Z" transform="rotate(-11.25)"><title>S: 0-1</title></path><path name="0-1_SSW" d="M-19.285,45.251A49.189,49.189,0,0,1,-34.427,35.134L-13.784,14.491A20,20,0,0,0,-8.113,18.28Z" transform="rotate(-11.25)"><title>SSW: 0-1</title></path><path name="0-1_SW" d="M-24.813,24.106A34.595,34.595,0,0,1,-31.767,13.699L-18.28,8.113A20,20,0,0,0,-14.491,13.784Z" transform="rotate(-11.25)"><title>SW: 0-1</title></path><path name="0-1_WSW" d="M-50.129,20.223A54.054,54.054,0,0,1,-54.052,0.5L-19.994,0.5A20,20,0,0,0,-18.663,7.189Z" transform="rotate(-11.25)"><title>WSW: 0-1</title></path><path name="0-1_W" d="M-58.917,-0.5A58.919,58.919,0,0,1,-54.623,-22.085L-18.663,-7.189A20,20,0,0,0,-19.994,-0.5Z" transform="rotate(-11.25)"><title>W: 0-1</title></path><path name="0-1_WNW" d="M-45.251,-19.285A49.189,49.189,0,0,1,-35.134,-34.427L-14.491,-13.784A20,20,0,0,0,-18.28,-8.113Z" transform="rotate(-11.25)"><title>WNW: 0-1</title></path><path name="0-1_NW" d="M-41.307,-42.014A58.919,58.919,0,0,1,-23.008,-54.241L-8.113,-18.28A20,20,0,0,0,-13.784,-14.491Z" transform="rotate(-11.25)"><title>NW: 0-1</title></path><path name="0-1_NNW" d="M-7.189,-18.663A20,20,0,0,1,-0.5,-19.994A20,20,0,0,0,-7.189,-18.663Z" transform="rotate(-11.25)"><title>NNW: 0-1</title></path></g><g name="ring-bin-1-2" fill="#deebf7"><path name="1-2_N" d="M0.5,-68.647A68.649,68.649,0,0,1,25.808,-63.613L23.946,-59.118A63.784,63.784,0,0,0,0.5,-63.782Z" transform="rotate(-11.25)"><title>N: 1-2</title></path><path name="1-2_NNE" d="M13.699,-31.767A34.595,34.595,0,0,1,24.106,-24.813L17.225,-17.932A24.865,24.865,0,0,0,9.975,-22.776Z" transform="rotate(-11.25)"><title>NNE: 1-2</title></path><path name="1-2_NE" d="M31.694,-30.987A44.324,44.324,0,0,1,40.756,-17.423A44.324,44.324,0,0,0,31.694,-30.987Z" transform="rotate(-11.25)"><title>NE: 1-2</title></path><path name="1-2_ENE" d="M45.634,-18.361A49.189,49.189,0,0,1,49.187,-0.5L44.322,-0.5A44.324,44.324,0,0,0,41.139,-16.499Z" transform="rotate(-11.25)"><title>ENE: 1-2</title></path><path name="1-2_E" d="M44.322,0.5A44.324,44.324,0,0,1,41.139,16.499L27.654,10.914A29.73,29.73,0,0,0,29.726,0.5Z" transform="rotate(-11.25)"><title>E: 1-2</title></path><path name="1-2_ESE" d="M67.725,28.594A73.514,73.514,0,0,1,52.334,51.627L24.813,24.106A34.595,34.595,0,0,0,31.767,13.699Z" transform="rotate(-11.25)"><title>ESE: 1-2</title></path><path name="1-2_SE" d="M13.784,14.491A20,20,0,0,1,8.113,18.28A20,20,0,0,0,13.784,14.491Z" transform="rotate(-11.25)"><title>SE: 1-2</title></path><path name="1-2_SSE" d="M9.052,23.159A24.865,24.865,0,0,1,0.5,24.86L0.5,19.994A20,20,0,0,0,7.189,18.663Z" transform="rotate(-11.25)"><title>SSE: 1-2</title></path><path name="1-2_S" d="M-0.5,29.726A29.73,29.73,0,0,1,-10.914,27.654L-7.189,18.663A20,20,0,0,0,-0.5,19.994Z" transform="rotate(-11.25)"><title>S: 1-2</title></path><path name="1-2_SSW" d="M-30.455,72.219A78.378,78.378,0,0,1,-55.067,55.774L-34.427,35.134A49.189,49.189,0,0,0,-19.285,45.251Z" transform="rotate(-11.25)"><title>SSW: 1-2</title></path><path name="1-2_SW" d="M-55.774,55.067A78.378,78.378,0,0,1,-72.219,30.455L-31.767,13.699A34.595,34.595,0,0,0,-24.813,24.106Z" transform="rotate(-11.25)"><title>SW: 1-2</title></path><path name="1-2_WSW" d="M-50.129,20.223A54.054,54.054,0,0,1,-54.052,0.5A54.054,54.054,0,0,0,-50.129,20.223Z" transform="rotate(-11.25)"><title>WSW: 1-2</title></path><path name="1-2_W" d="M-83.242,-0.5A83.243,83.243,0,0,1,-77.097,-31.393L-54.623,-22.085A58.919,58.919,0,0,0,-58.917,-0.5Z" transform="rotate(-11.25)"><title>W: 1-2</title></path><path name="1-2_WNW" d="M-85.703,-36.041A92.973,92.973,0,0,1,-66.094,-65.387L-35.134,-34.427A49.189,49.189,0,0,0,-45.251,-19.285Z" transform="rotate(-11.25)"><title>WNW: 1-2</title></path><path name="1-2_NW" d="M-61.947,-62.654A88.108,88.108,0,0,1,-34.179,-81.209L-23.008,-54.241A58.919,58.919,0,0,0,-41.307,-42.014Z" transform="rotate(-11.25)"><title>NW: 1-2</title></path><path name="1-2_NNW" d="M-9.052,-23.159A24.865,24.865,0,0,1,-0.5,-24.86L-0.5,-19.994A20,20,0,0,0,-7.189,-18.663Z" transform="rotate(-11.25)"><title>NNW: 1-2</title></path></g><g name="ring-bin-2-3" fill="#c6dbef"><path name="2-3_N" d="M0.5,-92.972A92.973,92.973,0,0,1,35.117,-86.086L25.808,-63.613A68.649,68.649,0,0,0,0.5,-68.647Z" transform="rotate(-11.25)"><title>N: 2-3</title></path><path name="2-3_NNE" d="M23.008,-54.241A58.919,58.919,0,0,1,41.307,-42.014L24.106,-24.813A34.595,34.595,0,0,0,13.699,-31.767Z" transform="rotate(-11.25)"><title>NNE: 2-3</title></path><path name="2-3_NE" d="M55.774,-55.067A78.378,78.378,0,0,1,72.219,-30.455L40.756,-17.423A44.324,44.324,0,0,0,31.694,-30.987Z" transform="rotate(-11.25)"><title>NE: 2-3</title></path><path name="2-3_ENE" d="M68.107,-27.67A73.514,73.514,0,0,1,73.512,-0.5L49.187,-0.5A49.189,49.189,0,0,0,45.634,-18.361Z" transform="rotate(-11.25)"><title>ENE: 2-3</title></path><path name="2-3_E" d="M58.917,0.5A58.919,58.919,0,0,1,54.623,22.085L41.139,16.499A44.324,44.324,0,0,0,44.322,0.5Z" transform="rotate(-11.25)"><title>E: 2-3</title></path><path name="2-3_ESE" d="M90.198,37.902A97.838,97.838,0,0,1,69.534,68.827L52.334,51.627A73.514,73.514,0,0,0,67.725,28.594Z" transform="rotate(-11.25)"><title>ESE: 2-3</title></path><path name="2-3_SE" d="M13.784,14.491A20,20,0,0,1,8.113,18.28A20,20,0,0,0,13.784,14.491Z" transform="rotate(-11.25)"><title>SE: 2-3</title></path><path name="2-3_SSE" d="M14.637,36.644A39.459,39.459,0,0,1,0.5,39.456L0.5,24.86A24.865,24.865,0,0,0,9.052,23.159Z" transform="rotate(-11.25)"><title>SSE: 2-3</title></path><path name="2-3_S" d="M-0.5,68.647A68.649,68.649,0,0,1,-25.808,63.613L-10.914,27.654A29.73,29.73,0,0,0,-0.5,29.726Z" transform="rotate(-11.25)"><title>S: 2-3</title></path><path name="2-3_SSW" d="M-41.626,99.187A107.568,107.568,0,0,1,-75.707,76.414L-55.067,55.774A78.378,78.378,0,0,0,-30.455,72.219Z" transform="rotate(-11.25)"><title>SSW: 2-3</title></path><path name="2-3_SW" d="M-79.854,79.147A112.432,112.432,0,0,1,-103.682,43.487L-72.219,30.455A78.378,78.378,0,0,0,-55.774,55.067Z" transform="rotate(-11.25)"><title>SW: 2-3</title></path><path name="2-3_WSW" d="M-90.581,36.979A97.838,97.838,0,0,1,-97.837,0.5L-54.052,0.5A54.054,54.054,0,0,0,-50.129,20.223Z" transform="rotate(-11.25)"><title>WSW: 2-3</title></path><path name="2-3_W" d="M-117.296,-0.5A117.297,117.297,0,0,1,-108.559,-44.425L-77.097,-31.393A83.243,83.243,0,0,0,-83.242,-0.5Z" transform="rotate(-11.25)"><title>W: 2-3</title></path><path name="2-3_WNW" d="M-103.682,-43.487A112.432,112.432,0,0,1,-79.854,-79.147L-66.094,-65.387A92.973,92.973,0,0,0,-85.703,-36.041Z" transform="rotate(-11.25)"><title>WNW: 2-3</title></path><path name="2-3_NW" d="M-92.907,-93.614A131.892,131.892,0,0,1,-50.934,-121.66L-34.179,-81.209A88.108,88.108,0,0,0,-61.947,-62.654Z" transform="rotate(-11.25)"><title>NW: 2-3</title></path><path name="2-3_NNW" d="M-9.052,-23.159A24.865,24.865,0,0,1,-0.5,-24.86A24.865,24.865,0,0,0,-9.052,-23.159Z" transform="rotate(-11.25)"><title>NNW: 2-3</title></path></g><g name="ring-bin-3-4" fill="#9ecae1"><path name="3-4_N" d="M0.5,-107.566A107.568,107.568,0,0,1,40.702,-99.57L35.117,-86.086A92.973,92.973,0,0,0,0.5,-92.972Z" transform="rotate(-11.25)"><title>N: 3-4</title></path><path name="3-4_NNE" d="M23.008,-54.241A58.919,58.919,0,0,1,41.307,-42.014A58.919,58.919,0,0,0,23.008,-54.241Z" transform="rotate(-11.25)"><title>NNE: 3-4</title></path><path name="3-4_NE" d="M55.774,-55.067A78.378,78.378,0,0,1,72.219,-30.455A78.378,78.378,0,0,0,55.774,-55.067Z" transform="rotate(-11.25)"><title>NE: 3-4</title></path><path name="3-4_ENE" d="M86.086,-35.117A92.973,92.973,0,0,1,92.972,-0.5L73.512,-0.5A73.514,73.514,0,0,0,68.107,-27.67Z" transform="rotate(-11.25)"><title>ENE: 3-4</title></path><path name="3-4_E" d="M58.917,0.5A58.919,58.919,0,0,1,54.623,22.085A58.919,58.919,0,0,0,58.917,0.5Z" transform="rotate(-11.25)"><title>E: 3-4</title></path><path name="3-4_ESE" d="M94.692,39.764A102.703,102.703,0,0,1,72.974,72.267L69.534,68.827A97.838,97.838,0,0,0,90.198,37.902Z" transform="rotate(-11.25)"><title>ESE: 3-4</title></path><path name="3-4_SE" d="M34.427,35.134A49.189,49.189,0,0,1,19.285,45.251L8.113,18.28A20,20,0,0,0,13.784,14.491Z" transform="rotate(-11.25)"><title>SE: 3-4</title></path><path name="3-4_SSE" d="M27.67,68.107A73.514,73.514,0,0,1,0.5,73.512L0.5,39.456A39.459,39.459,0,0,0,14.637,36.644Z" transform="rotate(-11.25)"><title>SSE: 3-4</title></path><path name="3-4_S" d="M-0.5,78.377A78.378,78.378,0,0,1,-29.532,72.602L-25.808,63.613A68.649,68.649,0,0,0,-0.5,68.647Z" transform="rotate(-11.25)"><title>S: 3-4</title></path><path name="3-4_SSW" d="M-56.52,135.144A146.486,146.486,0,0,1,-103.227,103.935L-75.707,76.414A107.568,107.568,0,0,0,-41.626,99.187Z" transform="rotate(-11.25)"><title>SSW: 3-4</title></path><path name="3-4_SW" d="M-110.814,110.107A156.216,156.216,0,0,1,-144.133,60.243L-103.682,43.487A112.432,112.432,0,0,0,-79.854,79.147Z" transform="rotate(-11.25)"><title>SW: 3-4</title></path><path name="3-4_WSW" d="M-99.57,40.702A107.568,107.568,0,0,1,-107.566,0.5L-97.837,0.5A97.838,97.838,0,0,0,-90.581,36.979Z" transform="rotate(-11.25)"><title>WSW: 3-4</title></path><path name="3-4_W" d="M-131.891,-0.5A131.892,131.892,0,0,1,-122.043,-50.011L-108.559,-44.425A117.297,117.297,0,0,0,-117.296,-0.5Z" transform="rotate(-11.25)"><title>W: 3-4</title></path><path name="3-4_WNW" d="M-130.649,-54.658A141.622,141.622,0,0,1,-100.495,-99.787L-79.854,-79.147A112.432,112.432,0,0,0,-103.682,-43.487Z" transform="rotate(-11.25)"><title>WNW: 3-4</title></path><path name="3-4_NW" d="M-96.347,-97.055A136.757,136.757,0,0,1,-52.796,-126.155L-50.934,-121.66A131.892,131.892,0,0,0,-92.907,-93.614Z" transform="rotate(-11.25)"><title>NW: 3-4</title></path><path name="3-4_NNW" d="M-16.499,-41.139A44.324,44.324,0,0,1,-0.5,-44.322L-0.5,-24.86A24.865,24.865,0,0,0,-9.052,-23.159Z" transform="rotate(-11.25)"><title>NNW: 3-4</title></path></g><g name="ring-bin-4-5" fill="#6baed6"><path name="4-5_N" d="M0.5,-117.296A117.297,117.297,0,0,1,44.425,-108.559L40.702,-99.57A107.568,107.568,0,0,0,0.5,-107.566Z" transform="rotate(-11.25)"><title>N: 4-5</title></path><path name="4-5_NNE" d="M24.87,-58.735A63.784,63.784,0,0,1,44.747,-45.454L41.307,-42.014A58.919,58.919,0,0,0,23.008,-54.241Z" transform="rotate(-11.25)"><title>NNE: 4-5</title></path><path name="4-5_NE" d="M69.534,-68.827A97.838,97.838,0,0,1,90.198,-37.902L72.219,-30.455A78.378,78.378,0,0,0,55.774,-55.067Z" transform="rotate(-11.25)"><title>NE: 4-5</title></path><path name="4-5_ENE" d="M99.57,-40.702A107.568,107.568,0,0,1,107.566,-0.5L92.972,-0.5A92.973,92.973,0,0,0,86.086,-35.117Z" transform="rotate(-11.25)"><title>ENE: 4-5</title></path><path name="4-5_E" d="M83.242,0.5A83.243,83.243,0,0,1,77.097,31.393L54.623,22.085A58.919,58.919,0,0,0,58.917,0.5Z" transform="rotate(-11.25)"><title>E: 4-5</title></path><path name="4-5_ESE" d="M108.176,45.349A117.297,117.297,0,0,1,83.294,82.587L72.974,72.267A102.703,102.703,0,0,0,94.692,39.764Z" transform="rotate(-11.25)"><title>ESE: 4-5</title></path><path name="4-5_SE" d="M44.747,45.454A63.784,63.784,0,0,1,24.87,58.735L19.285,45.251A49.189,49.189,0,0,0,34.427,35.134Z" transform="rotate(-11.25)"><title>SE: 4-5</title></path><path name="4-5_SSE" d="M33.255,81.591A88.108,88.108,0,0,1,0.5,88.107L0.5,73.512A73.514,73.514,0,0,0,27.67,68.107Z" transform="rotate(-11.25)"><title>SSE: 4-5</title></path><path name="4-5_S" d="M-0.5,88.107A88.108,88.108,0,0,1,-33.255,81.591L-29.532,72.602A78.378,78.378,0,0,0,-0.5,78.377Z" transform="rotate(-11.25)"><title>S: 4-5</title></path><path name="4-5_SSW" d="M-71.413,171.1A185.405,185.405,0,0,1,-130.747,131.454L-103.227,103.935A146.486,146.486,0,0,0,-56.52,135.144Z" transform="rotate(-11.25)"><title>SSW: 4-5</title></path><path name="4-5_SW" d="M-141.774,141.067A200,200,0,0,1,-184.584,76.998L-144.133,60.243A156.216,156.216,0,0,0,-110.814,110.107Z" transform="rotate(-11.25)"><title>SW: 4-5</title></path><path name="4-5_WSW" d="M-131.032,53.734A141.622,141.622,0,0,1,-141.621,0.5L-107.566,0.5A107.568,107.568,0,0,0,-99.57,40.702Z" transform="rotate(-11.25)"><title>WSW: 4-5</title></path><path name="4-5_W" d="M-141.621,-0.5A141.622,141.622,0,0,1,-131.032,-53.734L-122.043,-50.011A131.892,131.892,0,0,0,-131.891,-0.5Z" transform="rotate(-11.25)"><title>W: 4-5</title></path><path name="4-5_WNW" d="M-162.111,-67.69A175.676,175.676,0,0,1,-124.574,-123.867L-100.495,-99.787A141.622,141.622,0,0,0,-130.649,-54.658Z" transform="rotate(-11.25)"><title>WNW: 4-5</title></path><path name="4-5_NW" d="M-103.227,-103.935A146.486,146.486,0,0,1,-56.52,-135.144L-52.796,-126.155A136.757,136.757,0,0,0,-96.347,-97.055Z" transform="rotate(-11.25)"><title>NW: 4-5</title></path><path name="4-5_NNW" d="M-20.223,-50.129A54.054,54.054,0,0,1,-0.5,-54.052L-0.5,-44.322A44.324,44.324,0,0,0,-16.499,-41.139Z" transform="rotate(-11.25)"><title>NNW: 4-5</title></path></g></g><g name="direction-labels" font-weight="600" text-anchor="middle" dominant-baseline="middle" paint-order="stroke" stroke-width="1px" stroke="white" font-size="18"><text name="label" paint-order="stroke" stroke-width="1px" stroke="white" transform="rotate(-90) translate(220,0) rotate(90)">N</text><text name="label" paint-order="stroke" stroke-width="1px" stroke="white" transform="rotate(-67.5) translate(220,0) rotate(90)">NNE</text><text name="label" paint-order="stroke" stroke-width="1px" stroke="white" transform="rotate(-45) translate(220,0) rotate(90)">NE</text><text name="label" paint-order="stroke" stroke-width="1px" stroke="white" transform="rotate(-22.5) translate(220,0) rotate(90)">ENE</text><text name="label" paint-order="stroke" stroke-width="1px" stroke="white" transform="rotate(-1.4210854715202004e-14) translate(220,0) rotate(-90)">E</text><text name="label" paint-order="stroke" stroke-width="1px" stroke="white" transform="rotate(22.499999999999986) translate(220,0) rotate(-90)">ESE</text><text name="label" paint-order="stroke" stroke-width="1px" stroke="white" transform="rotate(45.00000000000003) translate(220,0) rotate(-90)">SE</text><text name="label" paint-order="stroke" stroke-width="1px" stroke="white" transform="rotate(67.49999999999997) translate(220,0) rotate(-90)">SSE</text><text name="label" paint-order="stroke" stroke-width="1px" stroke="white" transform="rotate(90.00000000000003) translate(220,0) rotate(-90)">S</text><text name="label" paint-order="stroke" stroke-width="1px" stroke="white" transform="rotate(112.49999999999997) translate(220,0) rotate(-90)">SSW</text><text name="label" paint-order="stroke" stroke-width="1px" stroke="white" transform="rotate(135.00000000000003) translate(220,0) rotate(-90)">SW</text><text name="label" paint-order="stroke" stroke-width="1px" stroke="white" transform="rotate(157.5) translate(220,0) rotate(-90)">WSW</text><text name="label" paint-order="stroke" stroke-width="1px" stroke="white" transform="rotate(180) translate(220,0) rotate(90)">W</text><text name="label" paint-order="stroke" stroke-width="1px" stroke="white" transform="rotate(202.5) translate(220,0) rotate(90)">WNW</text><text name="label" paint-order="stroke" stroke-width="1px" stroke="white" transform="rotate(225) translate(220,0) rotate(90)">NW</text><text name="label" paint-order="stroke" stroke-width="1px" stroke="white" transform="rotate(247.5) translate(220,0) rotate(90)">NNW</text></g><g name="radial-lines" fill="none" stroke="gray" stroke-dasharray="1,4"><line x1="20" x2="165.94594594594594" transform="rotate(-90)"></line><line x1="20" x2="165.94594594594594" transform="rotate(-67.5)"></line><line x1="20" x2="165.94594594594594" transform="rotate(-45)"></line><line x1="20" x2="165.94594594594594" transform="rotate(-22.5)"></line><line x1="20" x2="165.94594594594594" transform="rotate(0)"></line><line x1="20" x2="165.94594594594594" transform="rotate(22.5)"></line><line x1="20" x2="165.94594594594594" transform="rotate(45)"></line><line x1="20" x2="165.94594594594594" transform="rotate(67.5)"></line><line x1="20" x2="165.94594594594594" transform="rotate(90)"></line><line x1="20" x2="165.94594594594594" transform="rotate(112.5)"></line><line x1="20" x2="165.94594594594594" transform="rotate(135)"></line><line x1="20" x2="165.94594594594594" transform="rotate(157.5)"></line><line x1="20" x2="165.94594594594594" transform="rotate(180)"></line><line x1="20" x2="165.94594594594594" transform="rotate(202.5)"></line><line x1="20" x2="165.94594594594594" transform="rotate(225)"></line><line x1="20" x2="165.94594594594594" transform="rotate(247.5)"></line></g><g name="ticks" text-anchor="middle" font-size="18"><g name="tick"><circle fill="none" stroke="gray" stroke-dasharray="4" r="20"></circle><text x="0" dy="0.35em" paint-order="stroke" stroke-width="2" stroke="white" y="-20">0</text></g><g name="tick"><circle fill="none" stroke="gray" stroke-dasharray="4" r="68.64864864864865"></circle><text x="0" dy="0.35em" paint-order="stroke" stroke-width="2" stroke="white" y="-68.64864864864865">10</text></g><g name="tick"><circle fill="none" stroke="gray" stroke-dasharray="4" r="117.2972972972973"></circle><text x="0" dy="0.35em" paint-order="stroke" stroke-width="2" stroke="white" y="-117.2972972972973">20</text></g><g name="tick"><circle fill="none" stroke="gray" stroke-dasharray="4" r="165.94594594594594"></circle><text x="0" dy="0.35em" paint-order="stroke" stroke-width="2" stroke="white" y="-165.94594594594594">30</text></g></g><text name="units-label" y="-200" x="16" font-size="18" dominant-baseline="middle" paint-order="stroke" stroke-width="1" stroke="white">Hours</text></svg>