<svg font-family="sans-serif" name="windrose" viewBox="-250 -250 500 500" width="500"><g name="rings" transform="matrix(.98078528 -.19509032 .19509032 .98078528 0 0)"><g fill="#f7fbff" name="ring-bin-0-1"><path d="m.5-63.782a63.784 63.784 0 0 1 23.446 4.664l-16.757 40.455a20 20 0 0 0 -6.689-1.331z" name="0-1_N"/><path d="m9.975-22.776a24.865 24.865 0 0 1 7.25 4.844l-3.441 3.441a20 20 0 0 0 -5.671-3.789z" name="0-1_NNE"/><path d="m31.694-30.987a44.324 44.324 0 0 1 9.062 13.564l-22.476 9.31a20 20 0 0 0 -3.789-5.671z" name="0-1_NE"/><path d="m41.139-16.499a44.324 44.324 0 0 1 3.183 15.999h-24.328a20 20 0 0 0 -1.331-6.689z" name="0-1_ENE"/><path d="m29.726.5a29.73 29.73 0 0 1 -2.072 10.414l-8.991-3.725a20 20 0 0 0 1.331-6.689z" name="0-1_E"/><path d="m31.767 13.699a34.595 34.595 0 0 1 -6.954 10.407l-10.322-10.322a20 20 0 0 0 3.789-5.671z" name="0-1_ESE"/><path d="m13.784 14.491a20 20 0 0 1 -5.671 3.789 20 20 0 0 0 5.671-3.789z" name="0-1_SE"/><path d="m7.189 18.663a20 20 0 0 1 -6.689 1.331 20 20 0 0 0 6.689-1.331z" name="0-1_SSE"/><path d="m-.5 19.994a20 20 0 0 1 -6.689-1.331 20 20 0 0 0 6.689 1.331z" name="0-1_S"/><path d="m-19.285 45.251a49.189 49.189 0 0 1 -15.142-10.117l20.643-20.643a20 20 0 0 0 5.671 3.789z" name="0-1_SSW"/><path d="m-24.813 24.106a34.595 34.595 0 0 1 -6.954-10.407l13.487-5.586a20 20 0 0 0 3.789 5.671z" name="0-1_SW"/><path d="m-50.129 20.223a54.054 54.054 0 0 1 -3.923-19.723h34.058a20 20 0 0 0 1.331 6.689z" name="0-1_WSW"/><path d="m-58.917-.5a58.919 58.919 0 0 1 4.294-21.585l35.96 14.896a20 20 0 0 0 -1.331 6.689z" name="0-1_W"/><path d="m-45.251-19.285a49.189 49.189 0 0 1 10.117-15.142l20.643 20.643a20 20 0 0 0 -3.789 5.671z" name="0-1_WNW"/><path d="m-41.307-42.014a58.919 58.919 0 0 1 18.299-12.227l14.895 35.961a20 20 0 0 0 -5.671 3.789z" name="0-1_NW"/><path d="m-7.189-18.663a20 20 0 0 1 6.689-1.331 20 20 0 0 0 -6.689 1.331z" name="0-1_NNW"/></g><g fill="#deebf7" name="ring-bin-1-2"><path d="m.5-68.647a68.649 68.649 0 0 1 25.308 5.034l-1.862 4.495a63.784 63.784 0 0 0 -23.446-4.664z" name="1-2_N"/><path d="m13.699-31.767a34.595 34.595 0 0 1 10.407 6.954l-6.881 6.881a24.865 24.865 0 0 0 -7.25-4.844z" name="1-2_NNE"/><path d="m31.694-30.987a44.324 44.324 0 0 1 9.062 13.564 44.324 44.324 0 0 0 -9.062-13.564z" name="1-2_NE"/><path d="m45.634-18.361a49.189 49.189 0 0 1 3.553 17.861h-4.865a44.324 44.324 0 0 0 -3.183-15.999z" name="1-2_ENE"/><path d="m44.322.5a44.324 44.324 0 0 1 -3.183 15.999l-13.485-5.585a29.73 29.73 0 0 0 2.072-10.414z" name="1-2_E"/><path d="m67.725 28.594a73.514 73.514 0 0 1 -15.391 23.033l-27.521-27.521a34.595 34.595 0 0 0 6.954-10.407z" name="1-2_ESE"/><path d="m13.784 14.491a20 20 0 0 1 -5.671 3.789 20 20 0 0 0 5.671-3.789z" name="1-2_SE"/><path d="m9.052 23.159a24.865 24.865 0 0 1 -8.552 1.701v-4.866a20 20 0 0 0 6.689-1.331z" name="1-2_SSE"/><path d="m-.5 29.726a29.73 29.73 0 0 1 -10.414-2.072l3.725-8.991a20 20 0 0 0 6.689 1.331z" name="1-2_S"/><path d="m-30.455 72.219a78.378 78.378 0 0 1 -24.612-16.445l20.64-20.64a49.189 49.189 0 0 0 15.142 10.117z" name="1-2_SSW"/><path d="m-55.774 55.067a78.378 78.378 0 0 1 -16.445-24.612l40.452-16.756a34.595 34.595 0 0 0 6.954 10.407z" name="1-2_SW"/><path d="m-50.129 20.223a54.054 54.054 0 0 1 -3.923-19.723 54.054 54.054 0 0 0 3.923 19.723z" name="1-2_WSW"/><path d="m-83.242-.5a83.243 83.243 0 0 1 6.145-30.893l22.474 9.308a58.919 58.919 0 0 0 -4.294 21.585z" name="1-2_W"/><path d="m-85.703-36.041a92.973 92.973 0 0 1 19.609-29.346l30.96 30.96a49.189 49.189 0 0 0 -10.117 15.142z" name="1-2_WNW"/><path d="m-61.947-62.654a88.108 88.108 0 0 1 27.768-18.555l11.171 26.968a58.919 58.919 0 0 0 -18.299 12.227z" name="1-2_NW"/><path d="m-9.052-23.159a24.865 24.865 0 0 1 8.552-1.701v4.866a20 20 0 0 0 -6.689 1.331z" name="1-2_NNW"/></g><g fill="#c6dbef" name="ring-bin-2-3"><path d="m.5-92.972a92.973 92.973 0 0 1 34.617 6.886l-9.309 22.473a68.649 68.649 0 0 0 -25.308-5.034z" name="2-3_N"/><path d="m23.008-54.241a58.919 58.919 0 0 1 18.299 12.227l-17.201 17.201a34.595 34.595 0 0 0 -10.407-6.954z" name="2-3_NNE"/><path d="m55.774-55.067a78.378 78.378 0 0 1 16.445 24.612l-31.463 13.032a44.324 44.324 0 0 0 -9.062-13.564z" name="2-3_NE"/><path d="m68.107-27.67a73.514 73.514 0 0 1 5.405 27.17h-24.325a49.189 49.189 0 0 0 -3.553-17.861z" name="2-3_ENE"/><path d="m58.917.5a58.919 58.919 0 0 1 -4.294 21.585l-13.484-5.586a44.324 44.324 0 0 0 3.183-15.999z" name="2-3_E"/><path d="m90.198 37.902a97.838 97.838 0 0 1 -20.664 30.925l-17.2-17.2a73.514 73.514 0 0 0 15.391-23.033z" name="2-3_ESE"/><path d="m13.784 14.491a20 20 0 0 1 -5.671 3.789 20 20 0 0 0 5.671-3.789z" name="2-3_SE"/><path d="m14.637 36.644a39.459 39.459 0 0 1 -14.137 2.812v-14.596a24.865 24.865 0 0 0 8.552-1.701z" name="2-3_SSE"/><path d="m-.5 68.647a68.649 68.649 0 0 1 -25.308-5.034l14.894-35.959a29.73 29.73 0 0 0 10.414 2.072z" name="2-3_S"/><path d="m-41.626 99.187a107.568 107.568 0 0 1 -34.081-22.773l20.64-20.64a78.378 78.378 0 0 0 24.612 16.445z" name="2-3_SSW"/><path d="m-79.854 79.147a112.432 112.432 0 0 1 -23.828-35.66l31.463-13.032a78.378 78.378 0 0 0 16.445 24.612z" name="2-3_SW"/><path d="m-90.581 36.979a97.838 97.838 0 0 1 -7.256-36.479h43.785a54.054 54.054 0 0 0 3.923 19.723z" name="2-3_WSW"/><path d="m-117.296-.5a117.297 117.297 0 0 1 8.737-43.925l31.462 13.032a83.243 83.243 0 0 0 -6.145 30.893z" name="2-3_W"/><path d="m-103.682-43.487a112.432 112.432 0 0 1 23.828-35.66l13.76 13.76a92.973 92.973 0 0 0 -19.609 29.346z" name="2-3_WNW"/><path d="m-92.907-93.614a131.892 131.892 0 0 1 41.973-28.046l16.755 40.451a88.108 88.108 0 0 0 -27.768 18.555z" name="2-3_NW"/><path d="m-9.052-23.159a24.865 24.865 0 0 1 8.552-1.701 24.865 24.865 0 0 0 -8.552 1.701z" name="2-3_NNW"/></g><g fill="#9ecae1" name="ring-bin-3-4"><path d="m.5-107.566a107.568 107.568 0 0 1 40.202 7.996l-5.585 13.484a92.973 92.973 0 0 0 -34.617-6.886z" name="3-4_N"/><path d="m23.008-54.241a58.919 58.919 0 0 1 18.299 12.227 58.919 58.919 0 0 0 -18.299-12.227z" name="3-4_NNE"/><path d="m55.774-55.067a78.378 78.378 0 0 1 16.445 24.612 78.378 78.378 0 0 0 -16.445-24.612z" name="3-4_NE"/><path d="m86.086-35.117a92.973 92.973 0 0 1 6.886 34.617h-19.46a73.514 73.514 0 0 0 -5.405-27.17z" name="3-4_ENE"/><path d="m58.917.5a58.919 58.919 0 0 1 -4.294 21.585 58.919 58.919 0 0 0 4.294-21.585z" name="3-4_E"/><path d="m94.692 39.764a102.703 102.703 0 0 1 -21.718 32.503l-3.44-3.44a97.838 97.838 0 0 0 20.664-30.925z" name="3-4_ESE"/><path d="m34.427 35.134a49.189 49.189 0 0 1 -15.142 10.117l-11.172-26.971a20 20 0 0 0 5.671-3.789z" name="3-4_SE"/><path d="m27.67 68.107a73.514 73.514 0 0 1 -27.17 5.405v-34.056a39.459 39.459 0 0 0 14.137-2.812z" name="3-4_SSE"/><path d="m-.5 78.377a78.378 78.378 0 0 1 -29.032-5.775l3.724-8.989a68.649 68.649 0 0 0 25.308 5.034z" name="3-4_S"/><path d="m-56.52 135.144a146.486 146.486 0 0 1 -46.707-31.209l27.52-27.521a107.568 107.568 0 0 0 34.081 22.773z" name="3-4_SSW"/><path d="m-110.814 110.107a156.216 156.216 0 0 1 -33.319-49.864l40.451-16.756a112.432 112.432 0 0 0 23.828 35.66z" name="3-4_SW"/><path d="m-99.57 40.702a107.568 107.568 0 0 1 -7.996-40.202h9.729a97.838 97.838 0 0 0 7.256 36.479z" name="3-4_WSW"/><path d="m-131.891-.5a131.892 131.892 0 0 1 9.848-49.511l13.484 5.586a117.297 117.297 0 0 0 -8.737 43.925z" name="3-4_W"/><path d="m-130.649-54.658a141.622 141.622 0 0 1 30.154-45.129l20.641 20.64a112.432 112.432 0 0 0 -23.828 35.66z" name="3-4_WNW"/><path d="m-96.347-97.055a136.757 136.757 0 0 1 43.551-29.1l1.862 4.495a131.892 131.892 0 0 0 -41.973 28.046z" name="3-4_NW"/><path d="m-16.499-41.139a44.324 44.324 0 0 1 15.999-3.183v19.462a24.865 24.865 0 0 0 -8.552 1.701z" name="3-4_NNW"/></g><g fill="#6baed6" name="ring-bin-4-5"><path d="m.5-117.296a117.297 117.297 0 0 1 43.925 8.737l-3.723 8.989a107.568 107.568 0 0 0 -40.202-7.996z" name="4-5_N"/><path d="m24.87-58.735a63.784 63.784 0 0 1 19.877 13.281l-3.44 3.44a58.919 58.919 0 0 0 -18.299-12.227z" name="4-5_NNE"/><path d="m69.534-68.827a97.838 97.838 0 0 1 20.664 30.925l-17.979 7.447a78.378 78.378 0 0 0 -16.445-24.612z" name="4-5_NE"/><path d="m99.57-40.702a107.568 107.568 0 0 1 7.996 40.202h-14.594a92.973 92.973 0 0 0 -6.886-34.617z" name="4-5_ENE"/><path d="m83.242.5a83.243 83.243 0 0 1 -6.145 30.893l-22.474-9.308a58.919 58.919 0 0 0 4.294-21.585z" name="4-5_E"/><path d="m108.176 45.349a117.297 117.297 0 0 1 -24.882 37.238l-10.32-10.32a102.703 102.703 0 0 0 21.718-32.503z" name="4-5_ESE"/><path d="m44.747 45.454a63.784 63.784 0 0 1 -19.877 13.281l-5.585-13.484a49.189 49.189 0 0 0 15.142-10.117z" name="4-5_SE"/><path d="m33.255 81.591a88.108 88.108 0 0 1 -32.755 6.516v-14.595a73.514 73.514 0 0 0 27.17-5.405z" name="4-5_SSE"/><path d="m-.5 88.107a88.108 88.108 0 0 1 -32.755-6.516l3.723-8.989a78.378 78.378 0 0 0 29.032 5.775z" name="4-5_S"/><path d="m-71.413 171.1a185.405 185.405 0 0 1 -59.334-39.646l27.52-27.519a146.486 146.486 0 0 0 46.707 31.209z" name="4-5_SSW"/><path d="m-141.774 141.067a200 200 0 0 1 -42.81-64.069l40.451-16.755a156.216 156.216 0 0 0 33.319 49.864z" name="4-5_SW"/><path d="m-131.032 53.734a141.622 141.622 0 0 1 -10.589-53.234h34.055a107.568 107.568 0 0 0 7.996 40.202z" name="4-5_WSW"/><path d="m-141.621-.5a141.622 141.622 0 0 1 10.589-53.234l8.989 3.723a131.892 131.892 0 0 0 -9.848 49.511z" name="4-5_W"/><path d="m-162.111-67.69a175.676 175.676 0 0 1 37.537-56.177l24.079 24.08a141.622 141.622 0 0 0 -30.154 45.129z" name="4-5_WNW"/><path d="m-103.227-103.935a146.486 146.486 0 0 1 46.707-31.209l3.724 8.989a136.757 136.757 0 0 0 -43.551 29.1z" name="4-5_NW"/><path d="m-20.223-50.129a54.054 54.054 0 0 1 19.723-3.923v9.73a44.324 44.324 0 0 0 -15.999 3.183z" name="4-5_NNW"/></g></g><g dominant-baseline="middle" font-size="18" font-weight="600" name="direction-labels" stroke="#fff" text-anchor="middle"><text name="label" transform="translate(0 -220)">N</text><text name="label" transform="matrix(.92387953 .38268343 -.38268343 .92387953 84.190355 -203.253497)">NNE</text><text name="label" transform="matrix(.70710678 .70710678 -.70710678 .70710678 155.563492 -155.563492)">NE</text><text name="label" transform="matrix(.38268343 .92387953 -.92387953 .38268343 203.253497 -84.190355)">ENE</text><text name="label" transform="matrix(-0 -1 1 -0 220 -0)">E</text><text name="label" transform="matrix(.38268343 -.92387953 .92387953 .38268343 203.253497 84.190355)">ESE</text><text name="label" transform="matrix(.70710678 -.70710678 .70710678 .70710678 155.563492 155.563492)">SE</text><text name="label" transform="matrix(.92387953 -.38268343 .38268343 .92387953 84.190355 203.253497)">SSE</text><text name="label" transform="translate(-0 220)">S</text><text name="label" transform="matrix(.92387953 .38268343 -.38268343 .92387953 -84.190355 203.253497)">SSW</text><text name="label" transform="matrix(.70710678 .70710678 -.70710678 .70710678 -155.563492 155.563492)">SW</text><text name="label" transform="matrix(.38268343 .92387953 -.92387953 .38268343 -203.253497 84.190355)">WSW</text><text name="label" transform="matrix(-0 -1 1 -0 -220 0)">W</text><text name="label" transform="matrix(.38268343 -.92387953 .92387953 .38268343 -203.253497 -84.190355)">WNW</text><text name="label" transform="matrix(.70710678 -.70710678 .70710678 .70710678 -155.563492 -155.563492)">NW</text><text name="label" transform="matrix(.92387953 -.38268343 .38268343 .92387953 -84.190355 -203.253497)">NNW</text></g><g fill="none" name="radial-lines" stroke="#808080" stroke-dasharray="1 4"><path d="m20 0h145.945946" transform="rotate(-90)"/><path d="m20 0h145.945946" transform="matrix(.38268343 -.92387953 .92387953 .38268343 0 0)"/><path d="m20 0h145.945946" transform="matrix(.70710678 -.70710678 .70710678 .70710678 0 0)"/><path d="m20 0h145.945946" transform="matrix(.92387953 -.38268343 .38268343 .92387953 0 0)"/><path d="m20 0h145.945946"/><path d="m20 0h145.945946" transform="matrix(.92387953 .38268343 -.38268343 .92387953 0 0)"/><path d="m20 0h145.945946" transform="matrix(.70710678 .70710678 -.70710678 .70710678 0 0)"/><path d="m20 0h145.945946" transform="matrix(.38268343 .92387953 -.92387953 .38268343 0 0)"/><path d="m20 0h145.945946" transform="rotate(90)"/><path d="m20 0h145.945946" transform="matrix(-.38268343 .92387953 -.92387953 -.38268343 0 0)"/><path d="m20 0h145.945946" transform="matrix(-.70710678 .70710678 -.70710678 -.70710678 0 0)"/><path d="m20 0h145.945946" transform="matrix(-.92387953 .38268343 -.38268343 -.92387953 0 0)"/><path d="m20 0h145.945946" transform="scale(-1)"/><path d="m20 0h145.945946" transform="matrix(-.92387953 -.38268343 .38268343 -.92387953 0 0)"/><path d="m20 0h145.945946" transform="matrix(-.70710678 -.70710678 .70710678 -.70710678 0 0)"/><path d="m20 0h145.945946" transform="matrix(-.38268343 -.92387953 .92387953 -.38268343 0 0)"/></g><g font-size="18"><g name="ticks" text-anchor="middle"><g name="tick"><circle fill="none" r="20" stroke="#808080" stroke-dasharray="4"/><text dy=".35em" stroke="#fff" stroke-width="2" y="-20">0</text></g><g name="tick"><circle fill="none" r="68.648649" stroke="#808080" stroke-dasharray="4"/><text dy=".35em" stroke="#fff" stroke-width="2" y="-68.648649">10</text></g><g name="tick"><circle fill="none" r="117.297297" stroke="#808080" stroke-dasharray="4"/><text dy=".35em" stroke="#fff" stroke-width="2" y="-117.297297">20</text></g><g name="tick"><circle fill="none" r="165.945946" stroke="#808080" stroke-dasharray="4"/><text dy=".35em" stroke="#fff" stroke-width="2" y="-165.945946">30</text></g></g><text dominant-baseline="middle" name="units-label" stroke="#fff" x="16" y="-200">Hours</text></g></svg>