<svg viewBox="-250 -250 500 500" name="windrose" width="500" height="500" font-family="sans-serif" xmlns="http://www.w3.org/2000/svg"><g name="rings"><g name="ring-bin-0-1" fill="#c6dbef"><path name="0-1_N" d="M0.5,-25.802A25.806,25.806,0,0,1,9.412,-24.029L7.189,-18.663A20,20,0,0,0,0.5,-19.994Z" transform="rotate(-11.25)"><title>N: 0-1</title></path><path name="0-1_NNE" d="M28.113,-66.565A72.258,72.258,0,0,1,50.739,-51.446L13.784,-14.491A20,20,0,0,0,8.113,-18.28Z" transform="rotate(-11.25)"><title>NNE: 0-1</title></path><path name="0-1_NE" d="M26.811,-26.104A37.419,37.419,0,0,1,34.377,-14.78L18.28,-8.113A20,20,0,0,0,14.491,-13.784Z" transform="rotate(-11.25)"><title>NE: 0-1</title></path><path name="0-1_ENE" d="M40.124,-16.079A43.226,43.226,0,0,1,43.223,-0.5L19.994,-0.5A20,20,0,0,0,18.663,-7.189Z" transform="rotate(-11.25)"><title>ENE: 0-1</title></path><path name="0-1_E" d="M60.643,0.5A60.645,60.645,0,0,1,56.218,22.745L18.663,7.189A20,20,0,0,0,19.994,0.5Z" transform="rotate(-11.25)"><title>E: 0-1</title></path><path name="0-1_ESE" d="M61.2,25.891A66.452,66.452,0,0,1,47.341,46.634L14.491,13.784A20,20,0,0,0,18.28,8.113Z" transform="rotate(-11.25)"><title>ESE: 0-1</title></path><path name="0-1_SE" d="M42.528,43.235A60.645,60.645,0,0,1,23.669,55.836L8.113,18.28A20,20,0,0,0,13.784,14.491Z" transform="rotate(-11.25)"><title>SE: 0-1</title></path><path name="0-1_SSE" d="M27.189,66.947A72.258,72.258,0,0,1,0.5,72.256L0.5,19.994A20,20,0,0,0,7.189,18.663Z" transform="rotate(-11.25)"><title>SSE: 0-1</title></path><path name="0-1_S" d="M-0.5,72.256A72.258,72.258,0,0,1,-27.189,66.947L-7.189,18.663A20,20,0,0,0,-0.5,19.994Z" transform="rotate(-11.25)"><title>S: 0-1</title></path><path name="0-1_SSW" d="M-19.225,45.106A49.032,49.032,0,0,1,-34.316,35.023L-13.784,14.491A20,20,0,0,0,-8.113,18.28Z" transform="rotate(-11.25)"><title>SSW: 0-1</title></path><path name="0-1_SW" d="M-26.811,26.104A37.419,37.419,0,0,1,-34.377,14.78L-18.28,8.113A20,20,0,0,0,-14.491,13.784Z" transform="rotate(-11.25)"><title>SW: 0-1</title></path><path name="0-1_WSW" d="M-18.663,7.189A20,20,0,0,1,-19.994,0.5A20,20,0,0,0,-18.663,7.189Z" transform="rotate(-11.25)"><title>WSW: 0-1</title></path><path name="0-1_W" d="M-72.256,-0.5A72.258,72.258,0,0,1,-66.947,-27.189L-18.663,-7.189A20,20,0,0,0,-19.994,-0.5Z" transform="rotate(-11.25)"><title>W: 0-1</title></path><path name="0-1_WNW" d="M-34.377,-14.78A37.419,37.419,0,0,1,-26.811,-26.104L-14.491,-13.784A20,20,0,0,0,-18.28,-8.113Z" transform="rotate(-11.25)"><title>WNW: 0-1</title></path><path name="0-1_NW" d="M-17.891,-18.598A25.806,25.806,0,0,1,-10.336,-23.646L-8.113,-18.28A20,20,0,0,0,-13.784,-14.491Z" transform="rotate(-11.25)"><title>NW: 0-1</title></path><path name="0-1_NNW" d="M-9.412,-24.029A25.806,25.806,0,0,1,-0.5,-25.802L-0.5,-19.994A20,20,0,0,0,-7.189,-18.663Z" transform="rotate(-11.25)"><title>NNW: 0-1</title></path></g><g name="ring-bin-1-2" fill="#9ecae1"><path name="1-2_N" d="M0.5,-60.643A60.645,60.645,0,0,1,22.745,-56.218L9.412,-24.029A25.806,25.806,0,0,0,0.5,-25.802Z" transform="rotate(-11.25)"><title>N: 1-2</title></path><path name="1-2_NNE" d="M28.113,-66.565A72.258,72.258,0,0,1,50.739,-51.446A72.258,72.258,0,0,0,28.113,-66.565Z" transform="rotate(-11.25)"><title>NNE: 1-2</title></path><path name="1-2_NE" d="M59.658,-58.951A83.871,83.871,0,0,1,77.294,-32.557L34.377,-14.78A37.419,37.419,0,0,0,26.811,-26.104Z" transform="rotate(-11.25)"><title>NE: 1-2</title></path><path name="1-2_ENE" d="M50.854,-20.523A54.839,54.839,0,0,1,54.836,-0.5L43.223,-0.5A43.226,43.226,0,0,0,40.124,-16.079Z" transform="rotate(-11.25)"><title>ENE: 1-2</title></path><path name="1-2_E" d="M78.063,0.5A78.065,78.065,0,0,1,72.312,29.411L56.218,22.745A60.645,60.645,0,0,0,60.643,0.5Z" transform="rotate(-11.25)"><title>E: 1-2</title></path><path name="1-2_ESE" d="M98.752,41.446A107.097,107.097,0,0,1,76.082,75.375L47.341,46.634A66.452,66.452,0,0,0,61.2,25.891Z" transform="rotate(-11.25)"><title>ESE: 1-2</title></path><path name="1-2_SE" d="M42.528,43.235A60.645,60.645,0,0,1,23.669,55.836A60.645,60.645,0,0,0,42.528,43.235Z" transform="rotate(-11.25)"><title>SE: 1-2</title></path><path name="1-2_SSE" d="M27.189,66.947A72.258,72.258,0,0,1,0.5,72.256A72.258,72.258,0,0,0,27.189,66.947Z" transform="rotate(-11.25)"><title>SSE: 1-2</title></path><path name="1-2_S" d="M-0.5,72.256A72.258,72.258,0,0,1,-27.189,66.947A72.258,72.258,0,0,0,-0.5,72.256Z" transform="rotate(-11.25)"><title>S: 1-2</title></path><path name="1-2_SSW" d="M-32.557,77.294A83.871,83.871,0,0,1,-58.951,59.658L-34.316,35.023A49.032,49.032,0,0,0,-19.225,45.106Z" transform="rotate(-11.25)"><title>SSW: 1-2</title></path><path name="1-2_SW" d="M-39.129,38.422A54.839,54.839,0,0,1,-50.471,21.447L-34.377,14.78A37.419,37.419,0,0,0,-26.811,26.104Z" transform="rotate(-11.25)"><title>SW: 1-2</title></path><path name="1-2_WSW" d="M-66.947,27.189A72.258,72.258,0,0,1,-72.256,0.5L-19.994,0.5A20,20,0,0,0,-18.663,7.189Z" transform="rotate(-11.25)"><title>WSW: 1-2</title></path><path name="1-2_W" d="M-72.256,-0.5A72.258,72.258,0,0,1,-66.947,-27.189A72.258,72.258,0,0,0,-72.256,-0.5Z" transform="rotate(-11.25)"><title>W: 1-2</title></path><path name="1-2_WNW" d="M-71.929,-30.335A78.065,78.065,0,0,1,-55.552,-54.845L-26.811,-26.104A37.419,37.419,0,0,0,-34.377,-14.78Z" transform="rotate(-11.25)"><title>WNW: 1-2</title></path><path name="1-2_NW" d="M-26.104,-26.811A37.419,37.419,0,0,1,-14.78,-34.377L-10.336,-23.646A25.806,25.806,0,0,0,-17.891,-18.598Z" transform="rotate(-11.25)"><title>NW: 1-2</title></path><path name="1-2_NNW" d="M-18.301,-45.489A49.032,49.032,0,0,1,-0.5,-49.03L-0.5,-25.802A25.806,25.806,0,0,0,-9.412,-24.029Z" transform="rotate(-11.25)"><title>NNW: 1-2</title></path></g><g name="ring-bin-2-3" fill="#6baed6"><path name="2-3_N" d="M0.5,-78.063A78.065,78.065,0,0,1,29.411,-72.312L22.745,-56.218A60.645,60.645,0,0,0,0.5,-60.643Z" transform="rotate(-11.25)"><title>N: 2-3</title></path><path name="2-3_NNE" d="M37.001,-88.023A95.484,95.484,0,0,1,67.163,-67.87L50.739,-51.446A72.258,72.258,0,0,0,28.113,-66.565Z" transform="rotate(-11.25)"><title>NNE: 2-3</title></path><path name="2-3_NE" d="M84.293,-83.586A118.71,118.71,0,0,1,109.481,-45.89L77.294,-32.557A83.871,83.871,0,0,0,59.658,-58.951Z" transform="rotate(-11.25)"><title>NE: 2-3</title></path><path name="2-3_ENE" d="M61.583,-24.967A66.452,66.452,0,0,1,66.45,-0.5L54.836,-0.5A54.839,54.839,0,0,0,50.854,-20.523Z" transform="rotate(-11.25)"><title>ENE: 2-3</title></path><path name="2-3_E" d="M78.063,0.5A78.065,78.065,0,0,1,72.312,29.411A78.065,78.065,0,0,0,78.063,0.5Z" transform="rotate(-11.25)"><title>E: 2-3</title></path><path name="2-3_ESE" d="M104.117,43.668A112.903,112.903,0,0,1,80.187,79.48L76.082,75.375A107.097,107.097,0,0,0,98.752,41.446Z" transform="rotate(-11.25)"><title>ESE: 2-3</title></path><path name="2-3_SE" d="M42.528,43.235A60.645,60.645,0,0,1,23.669,55.836A60.645,60.645,0,0,0,42.528,43.235Z" transform="rotate(-11.25)"><title>SE: 2-3</title></path><path name="2-3_SSE" d="M27.189,66.947A72.258,72.258,0,0,1,0.5,72.256A72.258,72.258,0,0,0,27.189,66.947Z" transform="rotate(-11.25)"><title>SSE: 2-3</title></path><path name="2-3_S" d="M-0.5,83.869A83.871,83.871,0,0,1,-31.634,77.677L-27.189,66.947A72.258,72.258,0,0,0,-0.5,72.256Z" transform="rotate(-11.25)"><title>S: 2-3</title></path><path name="2-3_SSW" d="M-39.224,93.388A101.29,101.29,0,0,1,-71.269,71.976L-58.951,59.658A83.871,83.871,0,0,0,-32.557,77.294Z" transform="rotate(-11.25)"><title>SSW: 2-3</title></path><path name="2-3_SW" d="M-47.341,46.634A66.452,66.452,0,0,1,-61.2,25.891L-50.471,21.447A54.839,54.839,0,0,0,-39.129,38.422Z" transform="rotate(-11.25)"><title>SW: 2-3</title></path><path name="2-3_WSW" d="M-66.947,27.189A72.258,72.258,0,0,1,-72.256,0.5A72.258,72.258,0,0,0,-66.947,27.189Z" transform="rotate(-11.25)"><title>WSW: 2-3</title></path><path name="2-3_W" d="M-83.869,-0.5A83.871,83.871,0,0,1,-77.677,-31.634L-66.947,-27.189A72.258,72.258,0,0,0,-72.256,-0.5Z" transform="rotate(-11.25)"><title>W: 2-3</title></path><path name="2-3_WNW" d="M-120.21,-50.334A130.323,130.323,0,0,1,-92.505,-91.798L-55.552,-54.845A78.065,78.065,0,0,0,-71.929,-30.335Z" transform="rotate(-11.25)"><title>WNW: 2-3</title></path><path name="2-3_NW" d="M-58.951,-59.658A83.871,83.871,0,0,1,-32.557,-77.294L-14.78,-34.377A37.419,37.419,0,0,0,-26.104,-26.811Z" transform="rotate(-11.25)"><title>NW: 2-3</title></path><path name="2-3_NNW" d="M-36.078,-88.406A95.484,95.484,0,0,1,-0.5,-95.483L-0.5,-49.03A49.032,49.032,0,0,0,-18.301,-45.489Z" transform="rotate(-11.25)"><title>NNW: 2-3</title></path></g><g name="ring-bin-3-4" fill="#4292c6"><path name="3-4_N" d="M0.5,-95.483A95.484,95.484,0,0,1,36.078,-88.406L29.411,-72.312A78.065,78.065,0,0,0,0.5,-78.063Z" transform="rotate(-11.25)"><title>N: 3-4</title></path><path name="3-4_NNE" d="M57,-136.304A147.742,147.742,0,0,1,104.115,-104.822L67.163,-67.87A95.484,95.484,0,0,0,37.001,-88.023Z" transform="rotate(-11.25)"><title>NNE: 3-4</title></path><path name="3-4_NE" d="M84.293,-83.586A118.71,118.71,0,0,1,109.481,-45.89A118.71,118.71,0,0,0,84.293,-83.586Z" transform="rotate(-11.25)"><title>NE: 3-4</title></path><path name="3-4_ENE" d="M77.677,-31.634A83.871,83.871,0,0,1,83.869,-0.5L66.45,-0.5A66.452,66.452,0,0,0,61.583,-24.967Z" transform="rotate(-11.25)"><title>ENE: 3-4</title></path><path name="3-4_E" d="M112.902,0.5A112.903,112.903,0,0,1,104.499,42.744L72.312,29.411A78.065,78.065,0,0,0,78.063,0.5Z" transform="rotate(-11.25)"><title>E: 3-4</title></path><path name="3-4_ESE" d="M136.304,57A147.742,147.742,0,0,1,104.822,104.115L80.187,79.48A112.903,112.903,0,0,0,104.117,43.668Z" transform="rotate(-11.25)"><title>ESE: 3-4</title></path><path name="3-4_SE" d="M58.951,59.658A83.871,83.871,0,0,1,32.557,77.294L23.669,55.836A60.645,60.645,0,0,0,42.528,43.235Z" transform="rotate(-11.25)"><title>SE: 3-4</title></path><path name="3-4_SSE" d="M40.522,99.135A107.097,107.097,0,0,1,0.5,107.096L0.5,72.256A72.258,72.258,0,0,0,27.189,66.947Z" transform="rotate(-11.25)"><title>SSE: 3-4</title></path><path name="3-4_S" d="M-0.5,130.322A130.323,130.323,0,0,1,-49.41,120.593L-31.634,77.677A83.871,83.871,0,0,0,-0.5,83.869Z" transform="rotate(-11.25)"><title>S: 3-4</title></path><path name="3-4_SSW" d="M-54.778,130.939A141.935,141.935,0,0,1,-100.009,100.716L-71.269,71.976A101.29,101.29,0,0,0,-39.224,93.388Z" transform="rotate(-11.25)"><title>SSW: 3-4</title></path><path name="3-4_SW" d="M-76.082,75.375A107.097,107.097,0,0,1,-98.752,41.446L-61.2,25.891A66.452,66.452,0,0,0,-47.341,46.634Z" transform="rotate(-11.25)"><title>SW: 3-4</title></path><path name="3-4_WSW" d="M-109.864,44.966A118.71,118.71,0,0,1,-118.709,0.5L-72.256,0.5A72.258,72.258,0,0,0,-66.947,27.189Z" transform="rotate(-11.25)"><title>WSW: 3-4</title></path><path name="3-4_W" d="M-95.483,-0.5A95.484,95.484,0,0,1,-88.406,-36.078L-77.677,-31.634A83.871,83.871,0,0,0,-83.869,-0.5Z" transform="rotate(-11.25)"><title>W: 3-4</title></path><path name="3-4_WNW" d="M-152.397,-63.666A165.161,165.161,0,0,1,-117.14,-116.433L-92.505,-91.798A130.323,130.323,0,0,0,-120.21,-50.334Z" transform="rotate(-11.25)"><title>WNW: 3-4</title></path><path name="3-4_NW" d="M-79.48,-80.187A112.903,112.903,0,0,1,-43.668,-104.117L-32.557,-77.294A83.871,83.871,0,0,0,-58.951,-59.658Z" transform="rotate(-11.25)"><title>NW: 3-4</title></path><path name="3-4_NNW" d="M-49.41,-120.593A130.323,130.323,0,0,1,-0.5,-130.322L-0.5,-95.483A95.484,95.484,0,0,0,-36.078,-88.406Z" transform="rotate(-11.25)"><title>NNW: 3-4</title></path></g><g name="ring-bin-4-5" fill="#2171b5"><path name="4-5_N" d="M0.5,-118.709A118.71,118.71,0,0,1,44.966,-109.864L36.078,-88.406A95.484,95.484,0,0,0,0.5,-95.483Z" transform="rotate(-11.25)"><title>N: 4-5</title></path><path name="4-5_NNE" d="M70.332,-168.491A182.581,182.581,0,0,1,128.75,-129.457L104.115,-104.822A147.742,147.742,0,0,0,57,-136.304Z" transform="rotate(-11.25)"><title>NNE: 4-5</title></path><path name="4-5_NE" d="M96.611,-95.904A136.129,136.129,0,0,1,125.575,-52.556L109.481,-45.89A118.71,118.71,0,0,0,84.293,-83.586Z" transform="rotate(-11.25)"><title>NE: 4-5</title></path><path name="4-5_ENE" d="M93.77,-38.3A101.29,101.29,0,0,1,101.289,-0.5L83.869,-0.5A83.871,83.871,0,0,0,77.677,-31.634Z" transform="rotate(-11.25)"><title>ENE: 4-5</title></path><path name="4-5_E" d="M165.161,0.5A165.161,165.161,0,0,1,152.78,62.742L104.499,42.744A112.903,112.903,0,0,0,112.902,0.5Z" transform="rotate(-11.25)"><title>E: 4-5</title></path><path name="4-5_ESE" d="M163.126,68.11A176.774,176.774,0,0,1,125.351,124.644L104.822,104.115A147.742,147.742,0,0,0,136.304,57Z" transform="rotate(-11.25)"><title>ESE: 4-5</title></path><path name="4-5_SE" d="M67.163,67.87A95.484,95.484,0,0,1,37.001,88.023L32.557,77.294A83.871,83.871,0,0,0,58.951,59.658Z" transform="rotate(-11.25)"><title>SE: 4-5</title></path><path name="4-5_SSE" d="M47.188,115.228A124.516,124.516,0,0,1,0.5,124.515L0.5,107.096A107.097,107.097,0,0,0,40.522,99.135Z" transform="rotate(-11.25)"><title>SSE: 4-5</title></path><path name="4-5_S" d="M-0.5,130.322A130.323,130.323,0,0,1,-49.41,120.593A130.323,130.323,0,0,0,-0.5,130.322Z" transform="rotate(-11.25)"><title>S: 4-5</title></path><path name="4-5_SSW" d="M-68.11,163.126A176.774,176.774,0,0,1,-124.644,125.351L-100.009,100.716A141.935,141.935,0,0,0,-54.778,130.939Z" transform="rotate(-11.25)"><title>SSW: 4-5</title></path><path name="4-5_SW" d="M-108.928,108.221A153.548,153.548,0,0,1,-141.668,59.222L-98.752,41.446A107.097,107.097,0,0,0,-76.082,75.375Z" transform="rotate(-11.25)"><title>SW: 4-5</title></path><path name="4-5_WSW" d="M-131.322,53.854A141.935,141.935,0,0,1,-141.935,0.5L-118.709,0.5A118.71,118.71,0,0,0,-109.864,44.966Z" transform="rotate(-11.25)"><title>WSW: 4-5</title></path><path name="4-5_W" d="M-141.935,-0.5A141.935,141.935,0,0,1,-131.322,-53.854L-88.406,-36.078A95.484,95.484,0,0,0,-95.483,-0.5Z" transform="rotate(-11.25)"><title>W: 4-5</title></path><path name="4-5_WNW" d="M-184.584,-76.998A200,200,0,0,1,-141.774,-141.067L-117.14,-116.433A165.161,165.161,0,0,0,-152.397,-63.666Z" transform="rotate(-11.25)"><title>WNW: 4-5</title></path><path name="4-5_NW" d="M-116.433,-117.14A165.161,165.161,0,0,1,-63.666,-152.397L-43.668,-104.117A112.903,112.903,0,0,0,-79.48,-80.187Z" transform="rotate(-11.25)"><title>NW: 4-5</title></path><path name="4-5_NNW" d="M-60.52,-147.415A159.355,159.355,0,0,1,-0.5,-159.354L-0.5,-130.322A130.323,130.323,0,0,0,-49.41,-120.593Z" transform="rotate(-11.25)"><title>NNW: 4-5</title></path></g></g><g name="direction-labels" font-weight="600" text-anchor="middle" dominant-baseline="middle" paint-order="stroke" stroke-width="1px" stroke="white" fill="black" font-size="18"><text name="label" paint-order="stroke" stroke-width="1px" stroke="white" transform="rotate(-90) translate(220,0) rotate(90)">N</text><text name="label" paint-order="stroke" stroke-width="1px" stroke="white" transform="rotate(-67.5) translate(220,0) rotate(90)">NNE</text><text name="label" paint-order="stroke" stroke-width="1px" stroke="white" transform="rotate(-45) translate(220,0) rotate(90)">NE</text><text name="label" paint-order="stroke" stroke-width="1px" stroke="white" transform="rotate(-22.5) translate(220,0) rotate(90)">ENE</text><text name="label" paint-order="stroke" stroke-width="1px" stroke="white" transform="rotate(-1.4210854715202004e-14) translate(220,0) rotate(-90)">E</text><text name="label" paint-order="stroke" stroke-width="1px" stroke="white" transform="rotate(22.499999999999986) translate(220,0) rotate(-90)">ESE</text><text name="label" paint-order="stroke" stroke-width="1px" stroke="white" transform="rotate(45.00000000000003) translate(220,0) rotate(-90)">SE</text><text name="label" paint-order="stroke" stroke-width="1px" stroke="white" transform="rotate(67.49999999999997) translate(220,0) rotate(-90)">SSE</text><text name="label" paint-order="stroke" stroke-width="1px" stroke="white" transform="rotate(90.00000000000003) translate(220,0) rotate(-90)">S</text><text name="label" paint-order="stroke" stroke-width="1px" stroke="white" transform="rotate(112.49999999999997) translate(220,0) rotate(-90)">SSW</text><text name="label" paint-order="stroke" stroke-width="1px" stroke="white" transform="rotate(135.00000000000003) translate(220,0) rotate(-90)">SW</text><text name="label" paint-order="stroke" stroke-width="1px" stroke="white" transform="rotate(157.5) translate(220,0) rotate(-90)">WSW</text><text name="label" paint-order="stroke" stroke-width="1px" stroke="white" transform="rotate(180) translate(220,0) rotate(90)">W</text><text name="label" paint-order="stroke" stroke-width="1px" stroke="white" transform="rotate(202.5) translate(220,0) rotate(90)">WNW</text><text name="label" paint-order="stroke" stroke-width="1px" stroke="white" transform="rotate(225) translate(220,0) rotate(90)">NW</text><text name="label" paint-order="stroke" stroke-width="1px" stroke="white" transform="rotate(247.5) translate(220,0) rotate(90)">NNW</text></g><g name="radial-lines" fill="none" stroke="gray" stroke-width="1" stroke-dasharray="1,4"><line x1="20" x2="194.1935483870968" transform="rotate(-90)"></line><line x1="20" x2="194.1935483870968" transform="rotate(-67.5)"></line><line x1="20" x2="194.1935483870968" transform="rotate(-45)"></line><line x1="20" x2="194.1935483870968" transform="rotate(-22.5)"></line><line x1="20" x2="194.1935483870968" transform="rotate(0)"></line><line x1="20" x2="194.1935483870968" transform="rotate(22.5)"></line><line x1="20" x2="194.1935483870968" transform="rotate(45)"></line><line x1="20" x2="194.1935483870968" transform="rotate(67.5)"></line><line x1="20" x2="194.1935483870968" transform="rotate(90)"></line><line x1="20" x2="194.1935483870968" transform="rotate(112.5)"></line><line x1="20" x2="194.1935483870968" transform="rotate(135)"></line><line x1="20" x2="194.1935483870968" transform="rotate(157.5)"></line><line x1="20" x2="194.1935483870968" transform="rotate(180)"></line><line x1="20" x2="194.1935483870968" transform="rotate(202.5)"></line><line x1="20" x2="194.1935483870968" transform="rotate(225)"></line><line x1="20" x2="194.1935483870968" transform="rotate(247.5)"></line></g><g name="ticks" text-anchor="middle" font-size="18"><g name="tick"><circle fill="none" stroke="gray" stroke-width="1" stroke-dasharray="4" r="20"></circle><text x="0" dy="0.35em" paint-order="stroke" stroke-width="2" stroke="white" fill="black" y="-20">0</text></g><g name="tick"><circle fill="none" stroke="gray" stroke-width="1" stroke-dasharray="4" r="78.06451612903226"></circle><text x="0" dy="0.35em" paint-order="stroke" stroke-width="2" stroke="white" fill="black" y="-78.06451612903226">10</text></g><g name="tick"><circle fill="none" stroke="gray" stroke-width="1" stroke-dasharray="4" r="136.1290322580645"></circle><text x="0" dy="0.35em" paint-order="stroke" stroke-width="2" stroke="white" fill="black" y="-136.1290322580645">20</text></g><g name="tick"><circle fill="none" stroke="gray" stroke-width="1" stroke-dasharray="4" r="194.1935483870968"></circle><text x="0" dy="0.35em" paint-order="stroke" stroke-width="2" stroke="white" fill="black" y="-194.1935483870968">30</text></g></g><text name="units-label" y="-200" x="16" font-size="18" dominant-baseline="middle" paint-order="stroke" stroke-width="1" stroke="white" fill="black">Hours</text></svg>